<svg id="Group_48" data-name="Group 48" xmlns="http://www.w3.org/2000/svg" xmlns:xlink="http://www.w3.org/1999/xlink" width="201" height="193" viewBox="0 0 201 193">
  <defs>
    <filter id="Ellipse_1" x="10" y="0" width="191" height="193" filterUnits="userSpaceOnUse">
      <feOffset dx="3" dy="3" input="SourceAlpha"/>
      <feGaussianBlur stdDeviation="15" result="blur"/>
      <feFlood flood-color="#da5e25" flood-opacity="0.349"/>
      <feComposite operator="in" in2="blur"/>
      <feComposite in="SourceGraphic"/>
    </filter>
  </defs>
  <path id="Path_23" data-name="Path 23" d="M249.826,18.492A85.8,85.8,0,0,1,296.438,5.066a87.006,87.006,0,0,1,61.3,25.332,88.376,88.376,0,0,1,0,124.381,87.006,87.006,0,0,1-61.3,25.332,85.988,85.988,0,0,1-46.611-13.679v2.787H244a94.892,94.892,0,0,0,52.438,15.959A93.041,93.041,0,0,0,362.3,157.819,92.82,92.82,0,0,0,244,15.959h5.826Z" transform="translate(-194.602)" fill="#f60" fill-rule="evenodd"/>
  <path id="Path_22" data-name="Path 22" d="M106.5,57.027V212.059H74.586V80.839H49V55h57.5ZM101.691,208.26V59.053H53.813V76.786H79.4V208.26Z" transform="translate(-49 -40.587)" fill="#fff"/>
  <g transform="matrix(1, 0, 0, 1, 0, 0)" filter="url(#Ellipse_1)">
    <ellipse id="Ellipse_1-2" data-name="Ellipse 1" cx="50.5" cy="51.5" rx="50.5" ry="51.5" transform="translate(52 42)"/>
  </g>
  <text id="Step_01" data-name="Step
01" transform="translate(77 91)" fill="#da5e25" font-size="22" font-family="BeVietnam-Medium, Be Vietnam" font-weight="500"><tspan x="0" y="0">Step</tspan><tspan x="0" y="24">01</tspan></text>
</svg>
