<svg class="hide" xmlns="http://www.w3.org/2000/svg">
  <symbol viewBox="0 0 92.077 71.449" id="vehicle">
    <defs>
      <linearGradient id="linear-gradient" x1="0.5" x2="0.5" y2="1" gradientUnits="objectBoundingBox">
        <stop offset="0" stop-color="#a044ff"/>
        <stop offset="1" stop-color="#6a3093"/>
      </linearGradient>
    </defs>
    <path id="Union_18" data-name="Union 18" d="M77.805,70.449a8.135,8.135,0,0,1-8.134-8.1v-3.97H21.407v3.97a8.136,8.136,0,0,1-8.135,8.1H8.135A8.136,8.136,0,0,1,0,62.353V34.991a11.182,11.182,0,0,1,3.931-8.5L6.792,23.84l6.87-18.546A8.143,8.143,0,0,1,21.271,0H71.033a8.172,8.172,0,0,1,7.609,5.294l6.967,18.779,1.985,2.1a11.284,11.284,0,0,1,3.483,8.1V62.353a8.135,8.135,0,0,1-8.134,8.1Zm-4.243-8.1a4.245,4.245,0,0,0,4.243,4.2h5.138a4.232,4.232,0,0,0,4.243-4.2v-5.1a7.908,7.908,0,0,1-4.243,1.129H73.562Zm-69.67,0a4.232,4.232,0,0,0,4.243,4.2h5.137a4.232,4.232,0,0,0,4.243-4.2v-3.97H8.135a7.9,7.9,0,0,1-4.243-1.129Zm79.051-7.862a4.211,4.211,0,0,0,4.243-4.164h-.02V34.271a7.336,7.336,0,0,0-2.3-5.313c-.02-.04-.078-.059-.1-.1l-1.868-2H9.205L6.558,29.347l-.077.078a7.3,7.3,0,0,0-2.588,5.566V50.326a4.2,4.2,0,0,0,4.243,4.164Zm-6.4-31.526h4.534L75,6.617a4.238,4.238,0,0,0-3.951-2.724H21.271a4.208,4.208,0,0,0-3.95,2.724L11.248,22.964H50.132a13.348,13.348,0,0,1,26.409,0Zm-22.478,0H72.571a9.453,9.453,0,0,0-18.508,0ZM65.39,48.652a1.952,1.952,0,0,1-1.947-1.946V36.587a1.952,1.952,0,0,1,1.947-1.946h14.6a1.952,1.952,0,0,1,1.946,1.946v10.12a1.952,1.952,0,0,1-1.946,1.946Zm1.946-3.892h10.7V38.533h-10.7ZM11.093,48.652a1.952,1.952,0,0,1-1.946-1.946V36.587a1.952,1.952,0,0,1,1.946-1.946h14.6a1.952,1.952,0,0,1,1.946,1.946v10.12a1.952,1.952,0,0,1-1.946,1.946Zm1.947-3.892h10.7V38.533h-10.7Zm23.1,1.946a1.946,1.946,0,1,1,0-3.893h18.8a1.946,1.946,0,0,1,0,3.893Zm0-6.033a1.946,1.946,0,1,1,0-3.893h18.8a1.946,1.946,0,0,1,0,3.893Z" transform="translate(0.5 0.5)" stroke="#fff" stroke-width="1" fill="url(#linear-gradient)"/>
  </symbol>
  <symbol viewBox="0 0 73.255 70.649" id="plan">
    <defs>
      <linearGradient id="linear-gradient" x1="0.5" x2="0.5" y2="1" gradientUnits="objectBoundingBox">
        <stop offset="0" stop-color="#a044ff"/>
        <stop offset="1" stop-color="#6a3093"/>
      </linearGradient>
    </defs>
    <path id="Union_19" data-name="Union 19" d="M9.515,70.449A9.527,9.527,0,0,1,0,60.934v-26.6a1.568,1.568,0,0,1,1.57-1.569H15.892V1.57A1.568,1.568,0,0,1,17.461,0H71.485a1.569,1.569,0,0,1,1.57,1.57V60.934a9.526,9.526,0,0,1-9.516,9.516Zm9.516-9.516a9.478,9.478,0,0,1-2.459,6.377H63.539a6.385,6.385,0,0,0,6.377-6.377V3.138H19.031Zm-15.892,0a6.377,6.377,0,0,0,12.754,0V35.9H3.138ZM28.93,56.359a1.574,1.574,0,0,1-1.141-.491L24.3,52.173a1.569,1.569,0,1,1,2.281-2.155l2.328,2.465,7.481-8.192a1.569,1.569,0,0,1,2.317,2.116l-8.619,9.44a1.569,1.569,0,0,1-1.146.511ZM42.269,52.6a1.569,1.569,0,1,1,0-3.138H62.382a1.569,1.569,0,1,1,0,3.138ZM28.93,38.371a1.571,1.571,0,0,1-1.141-.491L24.3,34.185a1.569,1.569,0,1,1,2.281-2.155L28.91,34.5,36.391,26.3a1.569,1.569,0,1,1,2.317,2.116l-8.619,9.44a1.566,1.566,0,0,1-1.146.511Zm13.34-3.006a1.569,1.569,0,1,1,0-3.138H62.382a1.569,1.569,0,1,1,0,3.138ZM28.93,20.383a1.572,1.572,0,0,1-1.141-.492L24.3,16.2a1.569,1.569,0,1,1,2.281-2.155l2.328,2.466,7.481-8.193a1.569,1.569,0,1,1,2.317,2.116l-8.619,9.441a1.573,1.573,0,0,1-1.146.511Zm13.34-2.258a1.569,1.569,0,1,1,0-3.138H62.382a1.569,1.569,0,1,1,0,3.138Z" transform="translate(0.1 0.1)" stroke="#fff" stroke-width="0.2" fill="url(#linear-gradient)"/>
  </symbol>
  <symbol viewBox="0 0 72.472 72.449" id="account">
    <defs>
      <linearGradient id="linear-gradient" x1="0.5" x2="0.5" y2="1" gradientUnits="objectBoundingBox">
        <stop offset="0" stop-color="#a044ff"/>
        <stop offset="1" stop-color="#6a3093"/>
      </linearGradient>
    </defs>
    <path id="Union_20" data-name="Union 20" d="M50.085,70.449h-.413a2.752,2.752,0,1,1,0-5.5H62.1A2.8,2.8,0,0,0,64.3,63.9a2.877,2.877,0,0,0,.582-2.41q-.006-.03-.012-.06A30.414,30.414,0,0,0,38.3,37.562l5.254,23.9A2.754,2.754,0,0,1,42.812,64l-5.5,5.5a2.753,2.753,0,0,1-1.947.806q-.069,0-.138,0t-.138,0a2.749,2.749,0,0,1-1.946-.806l-5.5-5.5a2.753,2.753,0,0,1-.742-2.537l5.253-23.9A30.414,30.414,0,0,0,5.567,61.488,2.875,2.875,0,0,0,6.15,63.9a2.793,2.793,0,0,0,2.2,1.047H20.364a2.752,2.752,0,0,1,0,5.5H8.351A8.362,8.362,0,0,1,.178,60.367a35.7,35.7,0,0,1,5.19-12.414q.049-.085.1-.168A35.788,35.788,0,0,1,24.021,33.693a18.874,18.874,0,0,1-4.108-4.233l0,0q-.1-.135-.188-.272l0,0-.033-.049,0-.007-.032-.048-.005-.008-.033-.049,0-.006-.033-.05,0-.006-.034-.052,0,0-.029-.044-.008-.013-.028-.043-.008-.013-.03-.047-.006-.009-.029-.046-.007-.011-.029-.047-.006-.01-.025-.039-.012-.019-.021-.034-.014-.023-.019-.031-.016-.027-.017-.028-.018-.029-.015-.025-.02-.033-.013-.022-.021-.036-.012-.021-.022-.037L19.1,28.2l-.021-.035-.013-.022-.021-.037-.009-.015-.025-.043L19,28.032l-.026-.046-.01-.017-.024-.041-.009-.016-.024-.043-.008-.014-.025-.045-.006-.011-.026-.047-.009-.016-.024-.043-.008-.014-.024-.044-.013-.024-.019-.034-.014-.026-.018-.033-.013-.025-.018-.034-.014-.027-.017-.033-.013-.025-.018-.035-.008-.015-.023-.045-.006-.011-.025-.048-.008-.015-.023-.046-.006-.013L18.5,27.1l-.008-.016-.022-.044-.008-.017-.021-.042-.011-.022-.019-.039L18.4,26.9l-.019-.038-.013-.026-.017-.034-.012-.026-.017-.035-.011-.024-.018-.037-.01-.021-.019-.04-.01-.021-.019-.041-.009-.02-.019-.041-.012-.026-.016-.035-.013-.028-.015-.034-.013-.028-.015-.033-.013-.029-.015-.034-.011-.025-.016-.037-.011-.025-.016-.037-.01-.023-.017-.039L18,26.036,17.988,26l-.01-.024-.016-.039-.01-.024-.016-.038-.01-.024-.016-.038-.01-.024-.016-.039-.009-.021-.017-.042-.007-.018-.018-.044-.007-.019-.018-.045-.007-.017-.018-.045-.013-.034-.011-.028-.013-.033-.012-.031-.012-.031-.012-.032-.012-.033-.012-.031-.013-.036-.01-.027-.016-.043-.008-.021-.018-.049,0-.014L17.6,25l-.005-.015-.015-.041-.008-.023-.013-.037-.009-.027-.017-.05,0-.013-.017-.049-.005-.016-.018-.054,0-.01-.016-.047-.006-.018-.015-.045-.006-.019-.014-.044-.007-.021L17.4,24.43l-.007-.021-.012-.039-.009-.027-.01-.032-.01-.033-.015-.047-.005-.017-.039-.129h0l-.017-.058,0-.008-.017-.059,0-.006-.016-.054,0-.012-.017-.058,0-.007-.018-.063v0l-.017-.06,0-.006-.012-.045-.006-.022-.011-.042-.006-.024-.012-.046-.005-.021-.012-.048,0-.019-.013-.051,0-.015-.013-.051,0-.016-.032-.128v0l-.031-.131v0L17,22.971l0-.015-.013-.057,0-.01-.01-.045-.005-.023-.009-.04-.006-.027-.009-.042-.005-.025-.025-.116,0-.02-.013-.064v0c-.014-.068-.027-.135-.041-.2h0l-.026-.136h0q-.075-.4-.133-.812l0-.012-.008-.057,0-.012-.009-.068h0q-.032-.241-.058-.485v0l0-.048,0-.023-.006-.059v-.011q-.013-.133-.024-.266v-.015c-.005-.061-.01-.123-.014-.185l0-.027,0-.035,0-.035,0-.043,0-.028c0-.067-.008-.135-.012-.2v-.01c-.007-.139-.013-.278-.017-.418v-.008c0-.037,0-.074,0-.111s0-.072,0-.108,0-.065,0-.1c0-.085,0-.17,0-.256a18.713,18.713,0,0,1,37.427,0q0,.128,0,.255c0,.032,0,.064,0,.1v.03q0,.052,0,.1c0,.019,0,.036,0,.055v.041c0,.028,0,.055,0,.083s0,.057,0,.085,0,.05,0,.074c0,.051,0,.1-.007.151v.023l0,.039,0,.032,0,.028c0,.038,0,.076-.007.113l0,.028,0,.043v0c0,.045-.006.091-.01.136l0,.038,0,.032v.015q-.005.063-.01.125v.016c-.006.065-.012.13-.018.194v.005q-.007.067-.014.134v.009l-.006.06,0,.028,0,.042,0,.016-.006.054h0c-.005.046-.011.092-.017.138l0,.039,0,.03-.006.043,0,.027-.007.05,0,.02-.005.039,0,.031,0,.031-.005.038,0,.022-.017.117h0q-.01.068-.021.136l0,.012q-.038.235-.081.468h0c-.013.068-.026.135-.039.2l0,.022-.009.045-.006.031-.008.037,0,.021-.01.047h0q-.049.236-.1.47l-.006.024-.01.044,0,.013-.013.055,0,.007-.031.126,0,.017-.013.05,0,.014-.014.052-.005.021-.012.046-.005.02-.012.046-.007.025-.011.041-.007.027-.011.039-.011.038-.008.028-.01.035-.009.032-.007.023-.012.043,0,.015-.014.05-.012.04-.007.024-.01.033-.01.033-.008.026-.012.039-.008.025-.013.041-.006.021-.013.043-.01.033-.01.032-.011.036-.009.029-.01.03-.011.035-.008.024-.014.042L53,24.564l-.013.038-.011.032-.011.034-.009.028-.012.036-.011.032-.011.033-.013.036-.009.027-.02.056,0,.008-.018.05-.005.014-.016.045-.007.019-.018.05,0,.014-.015.042-.009.023-.013.034-.011.029-.013.034-.011.03-.012.032-.012.031-.015.04-.009.023-.017.044-.007.019-.017.042-.008.021-.013.032-.012.031-.016.039-.009.023-.02.05,0,.012-.022.055,0,.008-.021.051,0,.012-.022.053,0,.01-.021.051,0,.012-.022.052,0,.01-.022.052,0,.01-.026.059v0l-.022.051-.005.012-.018.041-.01.022-.015.033-.013.028-.019.042-.009.019-.018.04-.01.022-.017.036-.012.026-.016.035-.012.026-.023.049-.005.011-.019.04-.01.022-.018.037L52.1,26.8l-.017.035-.013.026-.014.029-.016.033-.012.025-.017.034L52,27.011l-.015.029-.017.034-.013.025-.021.041-.01.019L51.9,27.2l-.01.019-.026.051,0,.008-.024.045-.008.015-.017.033L51.8,27.4l-.014.026-.017.032-.019.037-.012.023-.018.033-.014.026-.016.03-.016.029-.021.039-.01.019-.025.045-.007.014-.023.041-.01.018-.029.051,0,.007-.025.045-.008.015-.025.043-.008.015-.023.04-.011.019-.023.04-.01.017-.021.036-.013.023-.02.033-.015.025-.017.029-.017.028-.02.034-.014.024-.019.032-.016.026-.019.031-.016.026-.016.027-.019.031-.015.024-.02.033-.012.02-.023.037-.013.021-.022.036-.011.017-.026.041-.007.01-.029.046-.008.012-.028.044-.011.016-.026.04-.008.012-.029.044-.009.014-.028.042-.007.011-.03.045-.008.012-.029.043-.01.015-.028.041-.008.011-.031.045,0,0-.035.051-.007.01-.032.046,0,.006-.033.048-.007.01-.071.1h0a18.873,18.873,0,0,1-4.071,4.18,35.793,35.793,0,0,1,18.55,14.091q.057.085.107.173A35.7,35.7,0,0,1,70.27,60.367a8.469,8.469,0,0,1,.178,1.75,8.359,8.359,0,0,1-8.35,8.332ZM32.87,61.174l2.354,2.355,2.355-2.355L35.224,50.46ZM35.88,31.906A13.12,13.12,0,0,0,40.5,30.822l.006,0,.065-.029.009,0,.061-.027.018-.008.053-.024.019-.009.05-.023.03-.014.039-.018.038-.018.032-.015.042-.02.027-.013.048-.023.021-.011.057-.028.012-.006.062-.031.007,0,.063-.032.006,0,.065-.034,0,0a13.223,13.223,0,0,0,7.1-11.615q0-.046,0-.093a13.209,13.209,0,1,0-26.419,0q0,.1,0,.2c0,.038,0,.077,0,.115s0,.1,0,.146a13.226,13.226,0,0,0,7.09,11.244l0,0,.066.034.006,0,.063.032.007,0,.062.031.013.006.056.028.021.01.048.023.028.014.041.02.032.015.038.018.04.019.029.014.05.023.02.009.053.024.018.008.061.027.009,0,.066.029.005,0a13.115,13.115,0,0,0,4.622,1.084c.218,0,.437-.006.655-.006S35.662,31.9,35.88,31.906Z" transform="translate(1.024 1)" stroke="#fff" stroke-width="2" fill="url(#linear-gradient)"/>
  </symbol>
  <symbol viewBox="0 0 71.3 71.3" id="emailverify">
    <defs>
      <linearGradient id="linear-gradient" x1="0.5" x2="0.5" y2="1" gradientUnits="objectBoundingBox">
        <stop offset="0" stop-color="#a044ff"/>
        <stop offset="1" stop-color="#6a3093"/>
      </linearGradient>
    </defs>
    <path id="Union_21" data-name="Union 21" d="M6.152,70a6.116,6.116,0,0,1-3.516-1.109c-.04-.027-.082-.055-.121-.086A6.148,6.148,0,0,1,0,63.848v-32.4a6.16,6.16,0,0,1,6.152-6.152h13.4a17.363,17.363,0,1,1,30.888,0h13.4A6.16,6.16,0,0,1,70,31.445v32.4a6.149,6.149,0,0,1-2.515,4.958c-.04.032-.081.059-.121.086A6.114,6.114,0,0,1,63.848,70Zm2.564-4.1H61.283L41.425,50.079,38.79,52.14a6.142,6.142,0,0,1-7.58,0l-2.635-2.061ZM44.753,47.486l21.1,16.806a2.063,2.063,0,0,0,.049-.444v-32.4a2,2,0,0,0-.036-.376ZM4.1,31.445v32.4a2.008,2.008,0,0,0,.05.444l21.1-16.806L4.137,31.069A2.074,2.074,0,0,0,4.1,31.445Zm25.721,14.4,3.914,3.062a2.049,2.049,0,0,0,2.527,0l3.91-3.058L61.335,29.395H47.507a17.335,17.335,0,0,1-25.014,0H8.665ZM21.739,17.364A13.262,13.262,0,1,0,35,4.1,13.276,13.276,0,0,0,21.739,17.364Zm10.336,5.652L27.958,18.9a1.289,1.289,0,0,1,1.823-1.823l3.2,3.2,7.736-7.735a1.288,1.288,0,0,1,1.823,0h0a1.29,1.29,0,0,1,0,1.823L33.9,23.016a1.29,1.29,0,0,1-1.823,0Z" transform="translate(0.65 0.65)" stroke="#fff" stroke-width="1.3" fill="url(#linear-gradient)"/>

  </symbol>
  <symbol viewBox="0 0 76.999 69.505" id="payments">
    <defs>
      <linearGradient id="linear-gradient" x1="0.5" x2="0.5" y2="1" gradientUnits="objectBoundingBox">
        <stop offset="0" stop-color="#a044ff"/>
        <stop offset="1" stop-color="#6a3093"/>
      </linearGradient>
    </defs>
    <path id="Union_6" data-name="Union 6" d="M56.933,68.881c-.039-.031-3.9-3.043-7.869-6.352-8.248-6.87-8.975-8.321-9.247-8.869-.365-.729-.747-2.165-.771-6.5H3.981A3.986,3.986,0,0,1,0,43.177V3.981A3.985,3.985,0,0,1,3.981,0H62.774a3.985,3.985,0,0,1,3.981,3.981V29.489l8.24,2.419a1.53,1.53,0,0,1,1.1,1.345c0,.043.347,4.3.518,8.839.317,8.425-.194,10.607-.673,11.568-.274.546-1,2-9.248,8.869-3.973,3.309-7.83,6.322-7.869,6.352a1.531,1.531,0,0,1-1.884,0Zm-14.3-34.332c-.111,1.528-.312,4.531-.43,7.668-.049,1.288-.076,2.413-.087,3.4v.014c0,.006,0,.014,0,.023-.061,5.316.345,6.45.441,6.642.728,1.456,8.192,7.829,15.319,13.437C65,60.119,72.466,53.746,73.194,52.291c.113-.228.665-1.782.353-10.084-.118-3.135-.32-6.132-.43-7.658L57.875,30.074ZM3.062,43.177a.92.92,0,0,0,.919.918h35.1q.023-.937.063-2c.17-4.538.514-8.8.518-8.839a1.529,1.529,0,0,1,1.094-1.345l16.689-4.9a1.527,1.527,0,0,1,.862,0l5.387,1.581V20.21H3.062Zm0-26.029H63.693V12.861H3.062Zm0-13.167V9.8H63.693V3.981a.92.92,0,0,0-.919-.919H3.981A.921.921,0,0,0,3.062,3.981ZM56.913,61.044c-4.2-3.385-9.344-7.716-11.21-9.72a1.526,1.526,0,0,1-.4-.872,100.519,100.519,0,0,1,.169-12.488,1.53,1.53,0,0,1,1.1-1.379l10.876-3.193a1.531,1.531,0,0,1,.863,0l10.876,3.193a1.531,1.531,0,0,1,1.1,1.379,101.055,101.055,0,0,1,.169,12.488,1.531,1.531,0,0,1-.4.872c-1.867,2-7.016,6.335-11.211,9.72a1.53,1.53,0,0,1-1.922,0ZM48.467,39.218A101.913,101.913,0,0,0,48.3,49.607c1.6,1.6,5.207,4.724,9.575,8.276,4.37-3.551,7.979-6.672,9.576-8.276a101.909,101.909,0,0,0-.167-10.389l-9.409-2.762ZM57.026,49.35,53.351,46.9a1.531,1.531,0,0,1,1.7-2.548l2.507,1.671L61.579,41a1.531,1.531,0,1,1,2.391,1.913l-4.9,6.124a1.531,1.531,0,0,1-2.045.318ZM6.584,37.358a1.531,1.531,0,0,1,0-3.062H16.23a1.531,1.531,0,1,1,0,3.062Zm-.153-5.971A1.532,1.532,0,0,1,4.9,29.856v-4.9a1.532,1.532,0,0,1,1.531-1.532H23.578a1.532,1.532,0,0,1,1.532,1.532v4.9a1.532,1.532,0,0,1-1.532,1.532Zm1.531-3.063H22.047V26.488H7.961Z" transform="translate(0.15 0.15)" stroke="#fff" stroke-width="0.3" fill="url(#linear-gradient)"/>

  </symbol>
  <symbol viewBox="0 0 75.318 70.705" id="summery">
    <defs>
      <linearGradient id="linear-gradient" x1="0.5" x2="0.5" y2="1" gradientUnits="objectBoundingBox">
        <stop offset="0" stop-color="#a044ff"/>
        <stop offset="1" stop-color="#6a3093"/>
      </linearGradient>
    </defs>
    <path id="Union_5" data-name="Union 5" d="M9.516,69.2A9.526,9.526,0,0,1,0,59.689V9.516A9.526,9.526,0,0,1,9.516,0H64.3a9.526,9.526,0,0,1,9.516,9.516V53.057A10.591,10.591,0,0,1,70.7,60.6l-5.487,5.487A10.591,10.591,0,0,1,57.67,69.2Zm-4.9-9.516a4.908,4.908,0,0,0,4.9,4.9H55.364V57.382A6.64,6.64,0,0,1,62,50.75H69.2V20.761H4.613Zm55.364-2.307v6.755a6.042,6.042,0,0,0,1.969-1.318l5.487-5.487a6.052,6.052,0,0,0,1.318-1.969H62A2.021,2.021,0,0,0,59.977,57.382ZM4.613,9.516v6.632H69.2V9.516a4.908,4.908,0,0,0-4.9-4.9H9.516A4.908,4.908,0,0,0,4.613,9.516ZM23.068,43.83a2.307,2.307,0,0,1,0-4.614H50.75a2.307,2.307,0,0,1,0,4.614ZM18.455,32.3a2.307,2.307,0,1,1,0-4.613H55.364a2.307,2.307,0,0,1,0,4.613Z" transform="translate(0.75 0.75)" stroke="#fff" stroke-width="1.5" fill="url(#linear-gradient)"/>
  </symbol>

  <symbol viewBox="0 0 71.3 71.3" id="icon_1">
    <g id="Group_47" data-name="Group 47" transform="translate(-494.35 -1357.35)">
      <path id="Path_29" data-name="Path 29" d="M63.848,25.293h-13.4a17.363,17.363,0,1,0-30.888,0H6.152A6.159,6.159,0,0,0,0,31.445v32.4a6.147,6.147,0,0,0,2.515,4.958c.039.031.08.058.121.086A6.115,6.115,0,0,0,6.152,70h57.7a6.116,6.116,0,0,0,3.515-1.108c.041-.028.082-.055.122-.087A6.147,6.147,0,0,0,70,63.848v-32.4a6.159,6.159,0,0,0-6.152-6.152ZM4.1,63.848v-32.4a2.053,2.053,0,0,1,.036-.376l21.11,16.416L4.151,64.291a2.046,2.046,0,0,1-.05-.444ZM28.575,50.079l2.635,2.061a6.142,6.142,0,0,0,7.58,0l2.635-2.061L61.283,65.9H8.717Zm16.177-2.593,21.11-16.416a2.054,2.054,0,0,1,.036.376v32.4a2.046,2.046,0,0,1-.05.444ZM35,4.1A13.262,13.262,0,1,1,21.738,17.363,13.277,13.277,0,0,1,35,4.1Zm0,30.625a17.313,17.313,0,0,0,12.507-5.332H61.335L40.173,45.851l-3.91,3.058a2.047,2.047,0,0,1-2.527,0l-3.914-3.061L8.665,29.395H22.493A17.314,17.314,0,0,0,35,34.727Z" transform="translate(495 1358)" fill="#fff" stroke="#29104a" stroke-width="1.3"/>
      <path id="_1442912" data-name="1442912" d="M151.94,169.291a1.289,1.289,0,0,1,0,1.823l-8.647,8.647a1.289,1.289,0,0,1-1.823,0l-4.116-4.117a1.289,1.289,0,0,1,1.823-1.823l3.2,3.2,7.736-7.736a1.289,1.289,0,0,1,1.823,0Z" transform="translate(385.604 1201.254)" fill="#fff" stroke="#29104a" stroke-width="0.3"/>
    </g>
  </symbol>
  <symbol viewBox="0 0 76.999 69.504" id="icon_2">
    <path id="Union_7" data-name="Union 7" d="M56.933,68.881c-.039-.031-3.9-3.043-7.869-6.352-8.248-6.87-8.975-8.321-9.247-8.869-.365-.729-.747-2.165-.771-6.5H3.981A3.986,3.986,0,0,1,0,43.177V3.981A3.985,3.985,0,0,1,3.981,0H62.774a3.985,3.985,0,0,1,3.981,3.981V29.489l8.24,2.419a1.53,1.53,0,0,1,1.1,1.345c0,.043.347,4.3.518,8.839.317,8.425-.194,10.607-.673,11.568-.274.546-1,2-9.248,8.869-3.973,3.309-7.83,6.322-7.869,6.352a1.531,1.531,0,0,1-1.884,0Zm-14.3-34.332c-.111,1.528-.312,4.531-.43,7.668-.049,1.288-.076,2.413-.087,3.4v.014c0,.006,0,.014,0,.023-.061,5.316.345,6.45.441,6.642.728,1.456,8.192,7.829,15.319,13.437C65,60.119,72.466,53.746,73.194,52.291c.113-.228.665-1.782.353-10.084-.118-3.135-.32-6.132-.43-7.658L57.875,30.074ZM3.062,43.177a.92.92,0,0,0,.919.918h35.1q.023-.937.063-2c.17-4.538.514-8.8.518-8.839a1.529,1.529,0,0,1,1.094-1.345l16.689-4.9a1.527,1.527,0,0,1,.862,0l5.387,1.581V20.21H3.062Zm0-26.029H63.693V12.861H3.062Zm0-13.167V9.8H63.693V3.981a.92.92,0,0,0-.919-.919H3.981A.921.921,0,0,0,3.062,3.981ZM56.913,61.044c-4.2-3.385-9.344-7.716-11.21-9.72a1.526,1.526,0,0,1-.4-.872,100.519,100.519,0,0,1,.169-12.488,1.53,1.53,0,0,1,1.1-1.379l10.876-3.193a1.531,1.531,0,0,1,.863,0l10.876,3.193a1.531,1.531,0,0,1,1.1,1.379,101.055,101.055,0,0,1,.169,12.488,1.531,1.531,0,0,1-.4.872c-1.867,2-7.016,6.335-11.211,9.72a1.53,1.53,0,0,1-1.922,0ZM48.467,39.218A101.913,101.913,0,0,0,48.3,49.607c1.6,1.6,5.207,4.724,9.575,8.276,4.37-3.551,7.979-6.672,9.576-8.276a101.909,101.909,0,0,0-.167-10.389l-9.409-2.762ZM57.026,49.35,53.351,46.9a1.531,1.531,0,0,1,1.7-2.548l2.507,1.671L61.579,41a1.531,1.531,0,1,1,2.391,1.913l-4.9,6.124a1.531,1.531,0,0,1-2.045.318ZM6.584,37.358a1.531,1.531,0,0,1,0-3.062H16.23a1.531,1.531,0,1,1,0,3.062Zm-.153-5.971A1.532,1.532,0,0,1,4.9,29.856v-4.9a1.532,1.532,0,0,1,1.531-1.532H23.578a1.532,1.532,0,0,1,1.532,1.532v4.9a1.532,1.532,0,0,1-1.532,1.532Zm1.531-3.063H22.047V26.488H7.961Z" transform="translate(0.15 0.15)" fill="#fff" stroke="#29104a" stroke-width="0.3"/>
  </symbol>
  <symbol viewBox="0 0 75.318 70.705" id="icon_3">
    <path id="Union_8" data-name="Union 8" d="M9.516,69.2A9.526,9.526,0,0,1,0,59.689V9.516A9.526,9.526,0,0,1,9.516,0H64.3a9.526,9.526,0,0,1,9.516,9.516V53.057A10.591,10.591,0,0,1,70.7,60.6l-5.487,5.487A10.591,10.591,0,0,1,57.67,69.2Zm-4.9-9.516a4.908,4.908,0,0,0,4.9,4.9H55.364V57.382A6.64,6.64,0,0,1,62,50.75H69.2V20.761H4.613Zm55.364-2.307v6.755a6.042,6.042,0,0,0,1.969-1.318l5.487-5.487a6.052,6.052,0,0,0,1.318-1.969H62A2.021,2.021,0,0,0,59.977,57.382ZM4.613,9.516v6.632H69.2V9.516a4.908,4.908,0,0,0-4.9-4.9H9.516A4.908,4.908,0,0,0,4.613,9.516ZM23.068,43.83a2.307,2.307,0,0,1,0-4.614H50.75a2.307,2.307,0,0,1,0,4.614ZM18.455,32.3a2.307,2.307,0,1,1,0-4.613H55.364a2.307,2.307,0,0,1,0,4.613Z" transform="translate(0.75 0.75)" fill="#fff" stroke="#29104a" stroke-width="1.5"/>
  </symbol>
</svg>
