<svg xmlns="http://www.w3.org/2000/svg" xmlns:xlink="http://www.w3.org/1999/xlink" width="212.578" height="193" viewBox="0 0 212.578 193">
  <defs>
    <filter id="Ellipse_5" x="22.578" y="0" width="190" height="193" filterUnits="userSpaceOnUse">
      <feOffset dx="3" dy="3" input="SourceAlpha"/>
      <feGaussianBlur stdDeviation="15" result="blur"/>
      <feFlood flood-color="#da5e25" flood-opacity="0.349"/>
      <feComposite operator="in" in2="blur"/>
      <feComposite in="SourceGraphic"/>
    </filter>
  </defs>
  <g id="Group_46" data-name="Group 46" transform="translate(0 0.962)">
    <path id="Path_27" data-name="Path 27" d="M355.5,1789.78a87.116,87.116,0,0,1-108.675,11.4,31.029,31.029,0,0,1-5.826,2.533,93.808,93.808,0,0,0,53.2,16.466,92.43,92.43,0,0,0,65.864-157.82A93.475,93.475,0,0,0,241,1651.466a31.124,31.124,0,0,1,5.826,2.786,84.774,84.774,0,0,1,47.371-14.186c23.812,0,45.345,9.88,61.3,25.585a88.068,88.068,0,0,1,0,124.128Z" transform="translate(-179.949 -1635)" fill="#f60" fill-rule="evenodd"/>
    <path id="Path_26" data-name="Path 26" d="M51.171,1715.945c0-3.04-1.013-5.32-2.533-6.586-1.52-1.52-4.053-2.28-7.346-2.28h-.253c-3.293,0-5.826.76-7.346,2.027q-2.28,2.28-2.28,6.84v22.039H0v-22.039c0-11.146,3.547-19.759,10.386-25.332S27.612,1682,41.038,1682c13.679,0,24.066,3.04,30.905,8.613,7.093,5.573,10.386,14.186,10.386,25.332v26.6a22.419,22.419,0,0,1-4.053,13.679,23.95,23.95,0,0,1-8.866,7.6,23.949,23.949,0,0,1,8.866,7.6A22.42,22.42,0,0,1,82.33,1785.1v24.572c0,11.146-3.293,19.506-10.386,25.079-6.84,5.827-17.226,8.613-30.905,8.613-13.426,0-23.812-2.786-30.652-8.613C3.547,1829.18,0,1820.821,0,1809.674v-22.292H31.412v22.292c0,3.04.76,5.32,2.28,6.586s4.053,2.026,7.346,2.026h.253c3.293,0,5.826-.76,7.346-2.026a8.752,8.752,0,0,0,2.533-6.586V1785.1a18.9,18.9,0,0,0-1.013-6.08,3.406,3.406,0,0,0-2.28-2.28h0a16.128,16.128,0,0,0-2.28-.507c-1.013,0-2.533-.253-4.053-.253H30.652v-24.826H43.825c1.013,0,2.027-.253,2.787-.253h0c.76-.253,1.52-.253,1.773-.507h.253a5.151,5.151,0,0,0,1.52-2.28,12.663,12.663,0,0,0,1.013-5.826Zm.507-8.866a11.433,11.433,0,0,1,3.547,8.866v26.345a24.405,24.405,0,0,1-1.013,6.84,8.023,8.023,0,0,1-3.547,4.053h0a13.35,13.35,0,0,1-3.04.76h0a19.184,19.184,0,0,1-3.8.253h-9.12v18.493h6.84c1.773,0,3.293.253,4.56.253,1.267.253,2.533.507,3.547.76h0a7.969,7.969,0,0,1,4.306,4.307,18.709,18.709,0,0,1,1.267,7.093v24.572a11.432,11.432,0,0,1-3.547,8.866c-2.533,2.027-5.826,3.04-10.386,3.04h-.253c-4.56,0-7.853-1.013-10.386-3.04-2.28-2.026-3.293-5.066-3.293-8.866v-19H4.053v19c0,10.133,3.04,17.986,9.12,22.8,6.08,5.066,15.453,7.6,27.865,7.6q19,0,28.119-7.6c6.08-4.813,9.12-12.666,9.12-22.8V1785.1a20.515,20.515,0,0,0-3.293-11.906,22.268,22.268,0,0,0-10.386-7.853l-3.547-1.52,3.547-1.52a23.664,23.664,0,0,0,10.386-7.6c2.28-3.293,3.293-7.346,3.293-12.159v-26.6c0-10.386-3.04-17.986-9.12-23.052s-15.453-7.6-28.119-7.6c-12.413,0-21.786,2.533-27.865,7.6s-9.12,12.666-9.12,23.052v18.746H27.359v-18.746c0-3.8,1.013-6.84,3.293-8.866,2.533-2.28,5.826-3.293,10.386-3.293h.253A15.91,15.91,0,0,1,51.678,1707.079Z" transform="translate(0 -1670.094)" fill="#fff"/>
    <g transform="matrix(1, 0, 0, 1, 0, -0.96)" filter="url(#Ellipse_5)">
      <ellipse id="Ellipse_5-2" data-name="Ellipse 5" cx="50" cy="51.5" rx="50" ry="51.5" transform="translate(64.58 42)"/>
    </g>
    <text id="Step_03" data-name="Step
03" transform="translate(90.578 90.038)" fill="#da5e25" font-size="22" font-family="BeVietnam-Medium, Be Vietnam" font-weight="500"><tspan x="0" y="0">Step</tspan><tspan x="0" y="24">03</tspan></text>
  </g>
</svg>
