<svg id="Group_47" data-name="Group 47" xmlns="http://www.w3.org/2000/svg" xmlns:xlink="http://www.w3.org/1999/xlink" width="213.55" height="193" viewBox="0 0 213.55 193">
  <defs>
    <filter id="Ellipse_4" x="22.55" y="0" width="191" height="193" filterUnits="userSpaceOnUse">
      <feOffset dx="3" dy="3" input="SourceAlpha"/>
      <feGaussianBlur stdDeviation="15" result="blur"/>
      <feFlood flood-color="#da5e25" flood-opacity="0.349"/>
      <feComposite operator="in" in2="blur"/>
      <feComposite in="SourceGraphic"/>
    </filter>
  </defs>
  <path id="Path_25" data-name="Path 25" d="M291.211,776A94.534,94.534,0,0,0,237,793.226a40.412,40.412,0,0,1,5.826,2.533,85.882,85.882,0,0,1,48.384-14.693c23.812,0,45.345,9.88,61.3,25.586a87.4,87.4,0,0,1-61.3,149.46,84.928,84.928,0,0,1-40.025-9.626H240.8A92.7,92.7,0,0,0,357.074,803.359,93.492,93.492,0,0,0,291.211,776Z" transform="translate(-176.963 -776)" fill="#f60" fill-rule="evenodd"/>
  <path id="Path_24" data-name="Path 24" d="M0,952.381c0-7.093,2.28-13.68,6.586-20.013q6.46-9.119,19.759-16.719h0c8.36-4.813,14.693-9.373,18.746-13.426,4.053-3.8,6.08-7.346,6.08-10.386h0V861.945a9.373,9.373,0,0,0-2.533-6.84c-1.52-1.267-4.053-2.027-7.346-2.027h-.253c-3.293,0-5.826.76-7.346,2.027q-2.28,2.28-2.28,6.84v22.039H0V861.945c0-11.146,3.547-19.759,10.386-25.332C17.226,830.787,27.612,828,41.038,828c13.679,0,24.066,2.787,30.905,8.613,7.093,5.573,10.386,14.186,10.386,25.332V892.6a35.749,35.749,0,0,1-6.586,20.266c-4.306,6.08-10.893,11.906-19.759,16.973h0c-8.36,4.813-14.693,9.373-18.746,13.426s-5.826,7.853-5.826,11.146v7.6H82.33v25.079H0v-34.7Zm10.133-18.239a30.355,30.355,0,0,0-6.08,18.239v31.412H78.276V965.3H27.359V954.407c0-4.053,2.28-8.613,6.84-13.173,4.306-4.306,10.893-9.12,19.506-14.186h0c8.106-4.813,14.439-10.133,18.492-15.959a31.091,31.091,0,0,0,6.08-18.493V861.945c0-10.386-3.04-17.986-9.12-23.052s-15.453-7.6-28.119-7.6c-12.413,0-21.786,2.533-27.865,7.6s-9.12,12.666-9.12,23.052v18.746H27.359V861.945c0-4.053,1.013-6.84,3.293-8.866,2.533-2.28,5.826-3.293,10.386-3.293h.253c4.56,0,8.106,1.013,10.386,3.293,2.28,2.027,3.547,4.813,3.547,8.866v29.892h0c-.253,4.053-2.533,8.106-7.093,12.666-4.306,4.307-10.893,8.866-19.506,13.933h0C20.519,923.249,14.186,928.315,10.133,934.142Z" transform="translate(0 -814.827)" fill="#fff"/>
  <g transform="matrix(1, 0, 0, 1, 0, 0)" filter="url(#Ellipse_4)">
    <ellipse id="Ellipse_4-2" data-name="Ellipse 4" cx="50.5" cy="51.5" rx="50.5" ry="51.5" transform="translate(64.55 42)"/>
  </g>
  <text id="Step_02" data-name="Step
02" transform="translate(91.55 91)" fill="#da5e25" font-size="22" font-family="BeVietnam-Medium, Be Vietnam" font-weight="500"><tspan x="0" y="0">Step</tspan><tspan x="0" y="24">02</tspan></text>
</svg>
