<svg xmlns="http://www.w3.org/2000/svg" width="101.536" height="55.434" viewBox="0 0 101.536 55.434">
  <g id="Group_347" data-name="Group 347" transform="translate(-52.5 -18.25)">
    <g id="Group_341" data-name="Group 341" transform="translate(53 18)">
      <path id="Subtraction_2" data-name="Subtraction 2" d="M89.352,30.082h0a5.691,5.691,0,0,0-.719-.043H87.106a5.839,5.839,0,0,0-.72.042L80.153,11.2,73.888,30.081a5.838,5.838,0,0,0-.72-.042H71.642a5.838,5.838,0,0,0-.72.042L65.6,15.2l4.589-7.889L75.36,22.316l4.3-12.594L77.489,3.136a3.594,3.594,0,0,0-1.038-1.779A2.369,2.369,0,0,0,75.159.848V0c.759.027,1.707.056,2.817.085,1.083.028,2.173.042,3.241.042,1.237,0,2.413-.014,3.5-.042S86.67.028,87.318,0V.848a7.173,7.173,0,0,0-2.012.3,1.164,1.164,0,0,0-.848.974,5.74,5.74,0,0,0,.4,2.288l5.8,17.721,4.033-12.81a16.8,16.8,0,0,0,.974-5.042,3.356,3.356,0,0,0-.974-2.606,4.229,4.229,0,0,0-2.67-.826V0c1.1.032,1.958.06,2.712.085.843.028,1.7.042,2.542.042.647,0,1.253-.014,1.8-.042S100.114.028,100.536,0V.848a5.182,5.182,0,0,0-1.949,1.461,9.7,9.7,0,0,0-1.779,3.58L89.352,30.081ZM13.091,30h0c-.749-.056-1.717-.092-2.88-.106-1.11-.014-2.293-.022-3.517-.022-1.441,0-2.7.007-3.834.022C1.689,29.9.727,29.94,0,30v-.847a7.512,7.512,0,0,0,2.033-.339A1.478,1.478,0,0,0,2.944,27.8a8.426,8.426,0,0,0,.233-2.3V4.491a8.391,8.391,0,0,0-.233-2.309,1.533,1.533,0,0,0-.932-1.017A6.319,6.319,0,0,0,0,.848V0C.71.027,1.672.056,2.86.085,4.026.113,5.316.127,6.694.127c1.181,0,2.364-.014,3.517-.042S12.332.028,13.091,0V.848a6.471,6.471,0,0,0-2.055.317,1.476,1.476,0,0,0-.911,1.017,9.188,9.188,0,0,0-.212,2.309v10H21.141v-10a8.391,8.391,0,0,0-.233-2.309,1.533,1.533,0,0,0-.932-1.017A6.327,6.327,0,0,0,17.964.848V0c.739.027,1.743.056,2.987.085,1.223.028,2.456.042,3.665.042,1.293,0,2.526-.014,3.665-.042S30.353.028,31.055,0V.848A6.471,6.471,0,0,0,29,1.165a1.473,1.473,0,0,0-.911,1.017,9.188,9.188,0,0,0-.212,2.309V25.5a8.416,8.416,0,0,0,.233,2.288,1.478,1.478,0,0,0,.91,1.017,7.521,7.521,0,0,0,2.034.339V30c-.7-.055-1.633-.09-2.775-.1-1.112-.015-2.31-.022-3.665-.022-1.255,0-2.488.007-3.665.022-1.227.014-2.232.05-2.987.1v-.847A7.512,7.512,0,0,0,20,28.81a1.478,1.478,0,0,0,.911-1.017,8.426,8.426,0,0,0,.233-2.288V15.337H9.913V25.5a8.416,8.416,0,0,0,.233,2.288,1.478,1.478,0,0,0,.911,1.017,7.516,7.516,0,0,0,2.033.339V30Zm20.8,0h0v-.846a7.513,7.513,0,0,0,2.033-.339,1.478,1.478,0,0,0,.911-1.017,8.416,8.416,0,0,0,.233-2.288V4.491a8.379,8.379,0,0,0-.233-2.309A1.533,1.533,0,0,0,35.9,1.165a6.319,6.319,0,0,0-2.01-.317V0c.684.027,1.646.056,2.86.085,1.194.028,2.4.042,3.58.042,1.35,0,2.676-.014,3.94-.042S46.451.042,46.985.042c3.907,0,6.872.784,8.813,2.331a7.376,7.376,0,0,1,2.923,6.016,9.615,9.615,0,0,1-.593,3.2,8.324,8.324,0,0,1-2.013,3.092,10.446,10.446,0,0,1-3.876,2.309,18.465,18.465,0,0,1-6.186.89H43.808v7.372a6.733,6.733,0,0,0,.339,2.458,1.828,1.828,0,0,0,1.313,1.059,13.468,13.468,0,0,0,2.881.3V30c-.872-.027-2.012-.056-3.389-.084s-2.845-.042-4.364-.042c-1.209,0-2.406.014-3.558.042s-2.206.057-3.136.085ZM46.434.848c-1.1,0-1.816.242-2.14.72a5.865,5.865,0,0,0-.487,2.923V17.032h1.822a5.582,5.582,0,0,0,3.792-1.144A5.917,5.917,0,0,0,51.2,12.88a15.948,15.948,0,0,0,.488-4.024A12.082,12.082,0,0,0,50.5,2.839,4.364,4.364,0,0,0,46.434.848Z" transform="translate(0 9.776)" fill="#fff" stroke="rgba(0,0,0,0)" stroke-miterlimit="10" stroke-width="1"/>
      <g id="Subtraction_3" data-name="Subtraction 3" transform="translate(51.333)">
        <path id="Path_117" data-name="Path 117" d="M2.678,39.672H.433L23.194.25h2.245Z" fill="#fff"/>
      </g>
    </g>
    <path id="Path_116" data-name="Path 116" d="M5.4-8.631v-.22a1.938,1.938,0,0,0,.527-.088A.381.381,0,0,0,6.165-9.2a2.17,2.17,0,0,0,.06-.593v-5.444a2.162,2.162,0,0,0-.06-.6.4.4,0,0,0-.241-.263,1.628,1.628,0,0,0-.521-.082v-.22q.3.011.774.022t.949.011q.5,0,.949-.011t.719-.022v.22a1.668,1.668,0,0,0-.532.082.38.38,0,0,0-.236.263,2.368,2.368,0,0,0-.055.6v5.444a2.17,2.17,0,0,0,.06.593.381.381,0,0,0,.236.263,1.938,1.938,0,0,0,.527.088v.22q-.274-.022-.719-.027t-.949-.005q-.472,0-.949.005T5.4-8.631Zm-4.654,0v-.22a1.938,1.938,0,0,0,.527-.088A.381.381,0,0,0,1.511-9.2a2.17,2.17,0,0,0,.06-.593v-5.444a2.162,2.162,0,0,0-.06-.6A.4.4,0,0,0,1.27-16.1a1.628,1.628,0,0,0-.521-.082v-.22q.285.011.741.022t.993.011q.461,0,.911-.011l.746-.02v.22a1.668,1.668,0,0,0-.532.082.38.38,0,0,0-.236.263,2.368,2.368,0,0,0-.055.6v5.444a2.17,2.17,0,0,0,.06.593.381.381,0,0,0,.236.263,1.938,1.938,0,0,0,.527.088v.22q-.3-.022-.746-.027t-.911-.005q-.538,0-.993.005t-.742.023Zm1.855-3.8v-.22H6.939v.22Zm8.2,3.875A1.331,1.331,0,0,1,9.736-8.94a1.385,1.385,0,0,1-.329-.933,1.282,1.282,0,0,1,.214-.768,1.708,1.708,0,0,1,.554-.488,4.089,4.089,0,0,1,.719-.318q.379-.126.724-.252a2.1,2.1,0,0,0,.56-.291.505.505,0,0,0,.214-.417v-.856a1.322,1.322,0,0,0-.093-.51.723.723,0,0,0-.285-.346.926.926,0,0,0-.5-.121,1.649,1.649,0,0,0-.439.06.8.8,0,0,0-.362.2,1,1,0,0,1,.477.335.824.824,0,0,1,.17.51.738.738,0,0,1-.258.593.91.91,0,0,1-.609.22.73.73,0,0,1-.6-.247.911.911,0,0,1-.2-.6.844.844,0,0,1,.159-.527,1.769,1.769,0,0,1,.445-.4,2.7,2.7,0,0,1,.741-.274,4.221,4.221,0,0,1,.939-.1,3.668,3.668,0,0,1,.911.1,1.452,1.452,0,0,1,.681.379,1.2,1.2,0,0,1,.329.62,4.651,4.651,0,0,1,.077.928v2.986a.9.9,0,0,0,.055.373.192.192,0,0,0,.187.11.423.423,0,0,0,.209-.055,1.078,1.078,0,0,0,.187-.132l.11.187a1.624,1.624,0,0,1-.532.3,2.058,2.058,0,0,1-.675.1,1.088,1.088,0,0,1-.873-.269,1.021,1.021,0,0,1-.225-.62,1.819,1.819,0,0,1-.675.67,1.923,1.923,0,0,1-.943.239Zm.845-.7a.8.8,0,0,0,.39-.1,1.108,1.108,0,0,0,.357-.351v-2.25a1.1,1.1,0,0,1-.368.368q-.236.148-.483.318a1.457,1.457,0,0,0-.412.434,1.313,1.313,0,0,0-.165.7.948.948,0,0,0,.2.675.648.648,0,0,0,.483.2Zm5.631-7.969v7.574a.913.913,0,0,0,.159.626.737.737,0,0,0,.543.165v.231q-.209-.011-.626-.027t-.845-.016q-.428,0-.862.016L15-8.631v-.231a.737.737,0,0,0,.543-.165.913.913,0,0,0,.159-.626V-15.91a1.4,1.4,0,0,0-.148-.73A.6.6,0,0,0,15-16.875v-.231q.351.033.681.033.45,0,.856-.038a5.936,5.936,0,0,0,.742-.115Zm4.072.011a2.049,2.049,0,0,1,.67.1,1.835,1.835,0,0,1,.5.263.993.993,0,0,1,.263.335,1.055,1.055,0,0,1,.11.488.753.753,0,0,1-.214.527.735.735,0,0,1-.565.231.87.87,0,0,1-.6-.209.723.723,0,0,1-.236-.571.819.819,0,0,1,.165-.5.868.868,0,0,1,.483-.307.254.254,0,0,0-.132-.11.658.658,0,0,0-.263-.044.759.759,0,0,0-.362.077.633.633,0,0,0-.231.209,1.056,1.056,0,0,0-.165.477,7.589,7.589,0,0,0-.044.96v1H21.9v.22H20.736v4.314a.8.8,0,0,0,.274.719,1.364,1.364,0,0,0,.757.181v.231l-.8-.027q-.516-.016-1.087-.016-.417,0-.818.016t-.609.027v-.231A.737.737,0,0,0,19-9.026a.913.913,0,0,0,.159-.626v-4.424h-.746v-.22h.746a5.468,5.468,0,0,1,.154-1.487,2.028,2.028,0,0,1,.538-.884,1.974,1.974,0,0,1,.642-.39,2.312,2.312,0,0,1,.858-.158Zm3.633.812q.274.011.741.022t.928.011q.527,0,1.021-.011t.7-.011a3.62,3.62,0,0,1,2.283.6,1.9,1.9,0,0,1,.757,1.559,2.479,2.479,0,0,1-.154.829,2.147,2.147,0,0,1-.521.8,2.694,2.694,0,0,1-1,.6,4.761,4.761,0,0,1-1.6.231h-1.12v-.22h1.01a1.44,1.44,0,0,0,.982-.3,1.526,1.526,0,0,0,.461-.779,4.113,4.113,0,0,0,.126-1.043,3.116,3.116,0,0,0-.307-1.559,1.126,1.126,0,0,0-1.054-.516q-.428,0-.554.187a1.511,1.511,0,0,0-.126.757v5.379a1.736,1.736,0,0,0,.088.637.472.472,0,0,0,.34.274,3.473,3.473,0,0,0,.746.077v.241q-.34-.011-.878-.022T26.72-8.67q-.472,0-.922.011l-.812.022v-.22a1.938,1.938,0,0,0,.527-.088.381.381,0,0,0,.236-.263,2.17,2.17,0,0,0,.06-.593v-5.444a2.162,2.162,0,0,0-.06-.6.4.4,0,0,0-.241-.263,1.628,1.628,0,0,0-.521-.082Zm10.7,1.943a1,1,0,0,1,.571.148.9.9,0,0,1,.324.379,1.159,1.159,0,0,1,.1.483.945.945,0,0,1-.236.664.8.8,0,0,1-.62.258.864.864,0,0,1-.6-.192.652.652,0,0,1-.214-.51.892.892,0,0,1,.137-.51,1.3,1.3,0,0,1,.346-.346.491.491,0,0,0-.307.011.906.906,0,0,0-.51.269,1.68,1.68,0,0,0-.357.532,1.525,1.525,0,0,0-.132.6v2.909a.831.831,0,0,0,.258.713,1.319,1.319,0,0,0,.774.187v.231q-.252-.011-.735-.027t-1.01-.016q-.439,0-.889.016t-.681.027v-.231a.737.737,0,0,0,.543-.165.913.913,0,0,0,.159-.626V-13.11a1.405,1.405,0,0,0-.148-.73.6.6,0,0,0-.554-.236v-.231q.351.033.681.033.461,0,.862-.038a5.948,5.948,0,0,0,.741-.115v1.021a2.006,2.006,0,0,1,.351-.538,1.635,1.635,0,0,1,.5-.379,1.45,1.45,0,0,1,.651-.137Zm2.777-2.678a1.1,1.1,0,0,1,.73.225.765.765,0,0,1,.269.62.765.765,0,0,1-.269.62,1.1,1.1,0,0,1-.73.225,1.1,1.1,0,0,1-.73-.225.765.765,0,0,1-.269-.62.765.765,0,0,1,.269-.62,1.1,1.1,0,0,1,.735-.226Zm.856,2.711v4.775a.913.913,0,0,0,.159.626.737.737,0,0,0,.543.165v.231q-.2-.011-.615-.027t-.845-.016q-.428,0-.867.016t-.659.027V-8.86a.737.737,0,0,0,.543-.165.913.913,0,0,0,.159-.626V-13.11a1.405,1.405,0,0,0-.148-.73.6.6,0,0,0-.554-.236v-.231q.351.033.681.033.461,0,.862-.038a5.948,5.948,0,0,0,.746-.115Zm4.028-.033a3.1,3.1,0,0,1,.785.093,2.154,2.154,0,0,1,.587.236,1.329,1.329,0,0,1,.445.434,1.116,1.116,0,0,1,.159.6.865.865,0,0,1-.241.631.836.836,0,0,1-.626.247.854.854,0,0,1-.615-.22.78.78,0,0,1-.231-.593.829.829,0,0,1,.22-.587,1.058,1.058,0,0,1,.5-.313.677.677,0,0,0-.263-.187.976.976,0,0,0-.4-.077.956.956,0,0,0-.6.2,1.546,1.546,0,0,0-.434.549,3.246,3.246,0,0,0-.269.823,5.327,5.327,0,0,0-.093,1.032,3.351,3.351,0,0,0,.214,1.328,1.424,1.424,0,0,0,.549.681,1.353,1.353,0,0,0,.7.2,1.81,1.81,0,0,0,.7-.17,1.73,1.73,0,0,0,.735-.719l.187.066a2.965,2.965,0,0,1-.4.812,2.18,2.18,0,0,1-.713.664,2.091,2.091,0,0,1-1.076.258,2.659,2.659,0,0,1-1.29-.313,2.268,2.268,0,0,1-.922-.966,3.591,3.591,0,0,1-.346-1.685,3.526,3.526,0,0,1,.357-1.663,2.414,2.414,0,0,1,.971-1.015,2.83,2.83,0,0,1,1.415-.347Zm5.422,0a2,2,0,0,1,1.515.571,2.633,2.633,0,0,1,.549,1.866H47.223l-.022-.209h2.25a5.33,5.33,0,0,0-.066-.993,2.107,2.107,0,0,0-.241-.73.5.5,0,0,0-.439-.274.77.77,0,0,0-.653.483,3.9,3.9,0,0,0-.324,1.6l.033.066q-.011.132-.016.274t-.005.3a3,3,0,0,0,.214,1.229,1.552,1.552,0,0,0,.543.686,1.216,1.216,0,0,0,.67.214,1.861,1.861,0,0,0,.719-.165,1.7,1.7,0,0,0,.73-.713l.2.066a2.857,2.857,0,0,1-.417.812,2.287,2.287,0,0,1-.724.648,2.08,2.08,0,0,1-1.054.252A2.659,2.659,0,0,1,47.3-8.8a2.189,2.189,0,0,1-.9-.966,3.675,3.675,0,0,1-.324-1.646,3.737,3.737,0,0,1,.346-1.7,2.318,2.318,0,0,1,.955-1.015,2.835,2.835,0,0,1,1.389-.333ZM64.05-16.4v.22a1.337,1.337,0,0,0-.5.379,2.5,2.5,0,0,0-.461.928L61.152-8.609a1.506,1.506,0,0,0-.187-.011h-.4a1.506,1.506,0,0,0-.187.011l-2.3-6.981a.927.927,0,0,0-.269-.461.611.611,0,0,0-.335-.132v-.22q.307.011.73.022t.84.011q.483,0,.906-.011t.675-.022v.22a1.851,1.851,0,0,0-.521.077.3.3,0,0,0-.22.252,1.479,1.479,0,0,0,.1.593L61.548-10.5l-.252.45,1.24-3.941a4.332,4.332,0,0,0,.252-1.306.866.866,0,0,0-.252-.675,1.09,1.09,0,0,0-.692-.214v-.22l.7.022q.329.011.659.011.252,0,.466-.011Zm-7.837,0v.22a.431.431,0,0,0-.307.159.492.492,0,0,0-.071.329,1.85,1.85,0,0,0,.093.434l1.679,4.874-.3.4L58.716-14.1l.154.3L57.146-8.609a1.506,1.506,0,0,0-.187-.011h-.4a1.506,1.506,0,0,0-.187.011L53.913-15.48a1.148,1.148,0,0,0-.335-.549.692.692,0,0,0-.357-.154v-.22q.329.011.779.022t.856.011q.439,0,.785-.011l.572-.019ZM64.95-8.554a1.331,1.331,0,0,1-1.065-.384,1.385,1.385,0,0,1-.329-.933,1.281,1.281,0,0,1,.214-.768,1.708,1.708,0,0,1,.554-.488,4.089,4.089,0,0,1,.719-.318q.379-.126.724-.252a2.1,2.1,0,0,0,.56-.291.5.5,0,0,0,.214-.417v-.856a1.322,1.322,0,0,0-.093-.51.722.722,0,0,0-.285-.346.926.926,0,0,0-.5-.121,1.649,1.649,0,0,0-.439.06.8.8,0,0,0-.362.2,1,1,0,0,1,.477.335.824.824,0,0,1,.17.51.738.738,0,0,1-.258.593.91.91,0,0,1-.609.22.73.73,0,0,1-.6-.247.911.911,0,0,1-.2-.6A.844.844,0,0,1,64-13.692a1.769,1.769,0,0,1,.445-.4,2.7,2.7,0,0,1,.741-.274,4.221,4.221,0,0,1,.938-.1,3.668,3.668,0,0,1,.911.1,1.452,1.452,0,0,1,.681.379,1.2,1.2,0,0,1,.329.62,4.652,4.652,0,0,1,.077.928v2.986a.9.9,0,0,0,.055.373.192.192,0,0,0,.187.11.423.423,0,0,0,.209-.055,1.078,1.078,0,0,0,.187-.132l.11.187a1.624,1.624,0,0,1-.532.3,2.058,2.058,0,0,1-.675.1,1.088,1.088,0,0,1-.873-.269,1.021,1.021,0,0,1-.225-.62,1.819,1.819,0,0,1-.675.67,1.923,1.923,0,0,1-.94.235Zm.845-.7a.8.8,0,0,0,.39-.1,1.108,1.108,0,0,0,.357-.351v-2.25a1.1,1.1,0,0,1-.368.368q-.236.148-.483.318a1.457,1.457,0,0,0-.412.434,1.313,1.313,0,0,0-.165.7.948.948,0,0,0,.2.675.648.648,0,0,0,.486.2Zm7.168-5.2a1,1,0,0,1,.571.148.9.9,0,0,1,.324.379,1.159,1.159,0,0,1,.1.483.946.946,0,0,1-.236.664.8.8,0,0,1-.62.258.864.864,0,0,1-.6-.192.652.652,0,0,1-.214-.51.892.892,0,0,1,.137-.51,1.3,1.3,0,0,1,.346-.346.491.491,0,0,0-.307.011.906.906,0,0,0-.51.269,1.68,1.68,0,0,0-.357.532,1.525,1.525,0,0,0-.132.6v2.909a.831.831,0,0,0,.258.713,1.319,1.319,0,0,0,.774.187v.231q-.252-.011-.735-.027t-1.01-.016q-.439,0-.889.016t-.681.027v-.231a.737.737,0,0,0,.543-.165.913.913,0,0,0,.159-.626v-3.46a1.405,1.405,0,0,0-.148-.73.6.6,0,0,0-.554-.236v-.231q.351.033.681.033.461,0,.862-.038a5.948,5.948,0,0,0,.741-.115v1.021a2.006,2.006,0,0,1,.351-.538,1.635,1.635,0,0,1,.5-.379,1.45,1.45,0,0,1,.646-.137Zm5.126,0a1,1,0,0,1,.571.148.9.9,0,0,1,.324.379,1.159,1.159,0,0,1,.1.483.946.946,0,0,1-.236.664.8.8,0,0,1-.62.258.864.864,0,0,1-.6-.192.652.652,0,0,1-.214-.51.892.892,0,0,1,.137-.51,1.3,1.3,0,0,1,.346-.346.491.491,0,0,0-.307.011.906.906,0,0,0-.51.269,1.68,1.68,0,0,0-.357.532,1.525,1.525,0,0,0-.132.6v2.909a.831.831,0,0,0,.258.713,1.319,1.319,0,0,0,.774.187v.231q-.252-.011-.735-.027t-1.01-.016q-.439,0-.889.016t-.681.027v-.231a.737.737,0,0,0,.543-.165.913.913,0,0,0,.159-.626v-3.46a1.405,1.405,0,0,0-.148-.73.6.6,0,0,0-.554-.236v-.231q.351.033.681.033.461,0,.862-.038a5.949,5.949,0,0,0,.741-.115v1.021a2.006,2.006,0,0,1,.351-.538,1.635,1.635,0,0,1,.5-.379,1.45,1.45,0,0,1,.646-.137Zm2.8,5.9a1.331,1.331,0,0,1-1.065-.384,1.385,1.385,0,0,1-.329-.933,1.282,1.282,0,0,1,.214-.768,1.708,1.708,0,0,1,.554-.488,4.089,4.089,0,0,1,.719-.318q.379-.126.724-.252a2.1,2.1,0,0,0,.56-.291.505.505,0,0,0,.214-.417v-.856a1.322,1.322,0,0,0-.093-.51.722.722,0,0,0-.285-.346.926.926,0,0,0-.5-.121,1.65,1.65,0,0,0-.439.06.8.8,0,0,0-.362.2,1,1,0,0,1,.477.335.824.824,0,0,1,.17.51.738.738,0,0,1-.258.593.91.91,0,0,1-.609.22.73.73,0,0,1-.6-.247.911.911,0,0,1-.2-.6.844.844,0,0,1,.159-.527,1.769,1.769,0,0,1,.445-.4,2.7,2.7,0,0,1,.741-.274,4.221,4.221,0,0,1,.939-.1,3.668,3.668,0,0,1,.911.1,1.452,1.452,0,0,1,.681.379,1.2,1.2,0,0,1,.329.62,4.651,4.651,0,0,1,.077.928V-9.45a.9.9,0,0,0,.055.373.192.192,0,0,0,.187.11.423.423,0,0,0,.209-.055,1.077,1.077,0,0,0,.187-.132l.11.187a1.624,1.624,0,0,1-.532.3,2.058,2.058,0,0,1-.675.1,1.088,1.088,0,0,1-.873-.269,1.021,1.021,0,0,1-.225-.62,1.819,1.819,0,0,1-.675.67,1.923,1.923,0,0,1-.943.232Zm.845-.7a.8.8,0,0,0,.39-.1,1.108,1.108,0,0,0,.357-.351v-2.25a1.1,1.1,0,0,1-.368.368q-.236.148-.483.318a1.457,1.457,0,0,0-.412.434,1.313,1.313,0,0,0-.165.7.948.948,0,0,0,.2.675.648.648,0,0,0,.481.2Zm7.475-5.2a2.068,2.068,0,0,1,.752.115,1.11,1.11,0,0,1,.456.313,1.318,1.318,0,0,1,.258.538,3.816,3.816,0,0,1,.082.889v2.953a.914.914,0,0,0,.159.626.737.737,0,0,0,.543.165v.231q-.209-.011-.626-.027t-.823-.016q-.417,0-.818.016t-.609.027V-8.85a.56.56,0,0,0,.461-.165,1.056,1.056,0,0,0,.132-.626v-3.414a1.842,1.842,0,0,0-.055-.477.6.6,0,0,0-.2-.318.672.672,0,0,0-.428-.115.983.983,0,0,0-.774.362,1.344,1.344,0,0,0-.313.911v3.051a1.023,1.023,0,0,0,.137.626A.562.562,0,0,0,88-8.862v.231q-.2-.011-.576-.027t-.785-.016q-.417,0-.856.016t-.659.027v-.231a.737.737,0,0,0,.543-.165.914.914,0,0,0,.159-.626V-13.11a1.405,1.405,0,0,0-.148-.73.6.6,0,0,0-.554-.236v-.231q.351.033.681.033.461,0,.862-.038a5.949,5.949,0,0,0,.741-.115v.988a1.641,1.641,0,0,1,.746-.79,2.369,2.369,0,0,1,1.055-.231Zm4.885-1.646v1.8h1.3v.22h-1.3V-9.64a.707.707,0,0,0,.121.467.457.457,0,0,0,.362.137.657.657,0,0,0,.4-.148,1.221,1.221,0,0,0,.351-.51l.187.1a1.933,1.933,0,0,1-.532.812,1.406,1.406,0,0,1-.971.318,1.977,1.977,0,0,1-.637-.093,1.176,1.176,0,0,1-.461-.28,1.176,1.176,0,0,1-.318-.6,4.551,4.551,0,0,1-.077-.928v-3.71H91.59v-.22h.922v-1.449a4.118,4.118,0,0,0,.851-.082,2.647,2.647,0,0,0,.73-.28Zm7,1.8v.22a.832.832,0,0,0-.4.258,2.109,2.109,0,0,0-.362.686L98.791-8.8l-.406.768-2.393-5.433a1.055,1.055,0,0,0-.368-.521.708.708,0,0,0-.313-.093v-.231q.362.033.752.049t.752.016q.45,0,.823-.022l.7-.044v.231a2.914,2.914,0,0,0-.412.027.334.334,0,0,0-.263.154q-.071.126.06.434l1.383,3.337-.1.066.812-2.272a1.774,1.774,0,0,0,.1-1.3.838.838,0,0,0-.735-.456v-.22l.549.022q.3.011.516.011t.461-.011l.391-.018ZM98.791-8.8l-.417,1.174a1.783,1.783,0,0,1-.483.779,1.06,1.06,0,0,1-.4.2,1.982,1.982,0,0,1-.56.071,1.811,1.811,0,0,1-.543-.088,1.068,1.068,0,0,1-.467-.285.706.706,0,0,1-.187-.5.674.674,0,0,1,.241-.543.956.956,0,0,1,.637-.2.951.951,0,0,1,.593.176.608.608,0,0,1,.231.516.719.719,0,0,1-.137.417.82.82,0,0,1-.412.3.682.682,0,0,0,.132.011h.121a.887.887,0,0,0,.582-.209,1.5,1.5,0,0,0,.417-.659l.384-1.131Z" transform="translate(52.441 80.26)" fill="#fff"/>
  </g>
</svg>
