<svg xmlns="http://www.w3.org/2000/svg" width="23.77" height="23.769" viewBox="0 0 23.77 23.769">
  <path id="Path_1" data-name="Path 1" d="M20.472,3.668A11.88,11.88,0,1,0,3.657,20.446c.007.007.009.017.016.023.069.066.143.122.213.186.191.17.382.345.583.509.108.085.22.17.33.248.19.142.38.283.579.414.135.085.274.17.412.255.183.11.366.221.555.322.16.085.324.158.487.235.178.085.354.17.536.246s.366.136.551.2.345.127.522.182c.2.06.406.107.609.157.17.042.334.089.509.123.234.047.472.076.709.109.147.02.29.049.439.064.389.038.781.059,1.176.059s.788-.021,1.176-.059c.149-.014.292-.043.439-.064.238-.032.475-.062.709-.109.17-.034.339-.085.509-.123.2-.05.409-.1.609-.157.177-.054.349-.12.522-.182s.37-.127.551-.2.358-.162.536-.246c.163-.077.327-.15.487-.235.189-.1.372-.212.555-.322.138-.085.278-.162.412-.255.2-.131.389-.272.579-.414.11-.085.222-.161.33-.248.2-.161.392-.333.583-.509.07-.064.144-.12.213-.186.007-.006.009-.016.016-.023A11.867,11.867,0,0,0,20.472,3.668Zm-1.907,15.89c-.154.136-.314.265-.475.39-.1.073-.19.145-.288.215-.154.111-.31.216-.468.317-.115.074-.233.145-.352.215q-.224.127-.455.255c-.136.07-.274.135-.413.2s-.293.133-.443.193-.31.117-.467.17-.287.1-.432.143c-.17.051-.347.092-.523.135-.137.032-.273.069-.412.1-.2.039-.407.066-.613.094-.117.015-.233.037-.351.048-.326.031-.656.05-.99.05s-.664-.019-.99-.05c-.118-.012-.234-.033-.351-.048-.206-.028-.412-.055-.613-.094-.139-.027-.275-.064-.412-.1-.176-.042-.351-.085-.523-.135-.145-.043-.289-.094-.432-.143s-.314-.109-.467-.17-.3-.126-.443-.193-.278-.13-.413-.2c-.154-.08-.306-.164-.455-.255-.119-.07-.237-.141-.352-.215-.159-.1-.315-.206-.468-.317-.1-.07-.193-.142-.288-.215-.161-.125-.321-.255-.475-.39-.037-.028-.071-.064-.108-.1A6.809,6.809,0,0,1,9.72,13.1a5.032,5.032,0,0,0,4.323,0,6.809,6.809,0,0,1,4.628,6.361C18.635,19.494,18.6,19.526,18.565,19.558ZM8.922,6.815a3.395,3.395,0,1,1,4.623,4.623.018.018,0,0,0-.014.005,3.6,3.6,0,0,1-.709.3c-.044.013-.085.03-.132.041-.085.022-.174.037-.261.053a3.438,3.438,0,0,1-.5.05h-.1a3.438,3.438,0,0,1-.5-.05c-.085-.015-.175-.031-.261-.053-.045-.011-.085-.028-.132-.041a3.593,3.593,0,0,1-.709-.3l-.015-.005A3.4,3.4,0,0,1,8.922,6.815ZM20.176,17.779h0a8.529,8.529,0,0,0-4.544-5.85,5.092,5.092,0,1,0-7.5,0,8.529,8.529,0,0,0-4.544,5.85,10.184,10.184,0,1,1,16.589,0Z" transform="translate(0 -0.011)" fill="#fff"/>
</svg>
